<?xml version="1.0" encoding="UTF-8" standalone="no"?>
<!-- Created with Inkscape (http://www.inkscape.org/) -->

<svg
   xmlns:dc="http://purl.org/dc/elements/1.1/"
   xmlns:cc="http://creativecommons.org/ns#"
   xmlns:rdf="http://www.w3.org/1999/02/22-rdf-syntax-ns#"
   xmlns:svg="http://www.w3.org/2000/svg"
   xmlns="http://www.w3.org/2000/svg"
   xmlns:sodipodi="http://sodipodi.sourceforge.net/DTD/sodipodi-0.dtd"
   xmlns:inkscape="http://www.inkscape.org/namespaces/inkscape"
   id="svg2985"
   height="830"
   width="916"
   version="1.1"
   inkscape:version="0.48.1 "
   sodipodi:docname="Kemenkominfo.svg">
  <defs
     id="defs3025" />
  <sodipodi:namedview
     pagecolor="#ffffff"
     bordercolor="#666666"
     borderopacity="1"
     objecttolerance="10"
     gridtolerance="10"
     guidetolerance="10"
     inkscape:pageopacity="0"
     inkscape:pageshadow="2"
     inkscape:window-width="1280"
     inkscape:window-height="953"
     id="namedview3023"
     showgrid="false"
     inkscape:zoom="0.43959891"
     inkscape:cx="589.92935"
     inkscape:cy="317.98259"
     inkscape:window-x="0"
     inkscape:window-y="0"
     inkscape:window-maximized="1"
     inkscape:current-layer="svg2985" />
  <metadata
     id="metadata2991">
    <rdf:RDF>
      <cc:Work
         rdf:about="">
        <dc:format>image/svg+xml</dc:format>
        <dc:type
           rdf:resource="http://purl.org/dc/dcmitype/StillImage" />
        <dc:title />
      </cc:Work>
    </rdf:RDF>
  </metadata>
  <path
     id="path2995"
     d="m 477.44,574.18 c 0,0 11.64864,10.83194 9.4993,16.938 -4.94438,14.04645 -27.0657,20.57092 -41.441,16.685 -22.94001,-6.20112 -43.91477,-32.55551 -43.71,-56.318 0.30052,-34.87403 35.95946,-63.09972 65.564,-81.535 30.46694,-18.97231 69.18371,-24.13361 105.07,-23.536 39.07178,0.65066 80.76961,8.04109 113.48,29.42 18.2051,11.89852 33.23078,30.7236 40.347,51.275 4.03388,11.6497 0,36.985 0,36.985 0,0 32.10416,-44.32069 43.71,-68.927 13.8342,-29.33081 34.14815,-60.26717 30.261,-92.463 -1.78,-14.74311 -11.52684,-29.09056 -23.536,-37.826 -38.52257,-28.02126 -91.08023,-32.88542 -138.69,-34.463 -49.2184,-1.63088 -99.26234,8.89463 -145.42,26.058 -31.43803,11.68999 -62.2144,28.2235 -86.579,51.275 -27.43476,25.9562 -53.72907,57.54289 -63.043,94.144 -6.03694,23.72344 -4.75143,51.50717 6.7246,73.13 10.36037,19.52072 30.76985,33.78675 51.275,42.029 20.0787,8.07083 44.13034,11.69123 64.724,5.0434 13.6222,-4.39738 32.33301,-13.43167 32.782,-27.739 0.66129,-21.07262 -21.014,-20.174 -21.014,-20.174 z"
     inkscape:connector-curvature="0"
     style="fill:#18d1ff"
     sodipodi:nodetypes="cssssssscssssssssssscc" />
  <path
     id="path3765"
     d="m 466.03,586.58 c 0,0 -3.0393,-9.37314 -0.44173,-12.733 4.21182,-5.44781 13.71301,-6.92212 20.161,-4.5052 9.3602,3.50852 17.74049,14.16987 17.757,24.166 0.0212,12.83368 -11.25405,25.28649 -22.695,31.101 -24.9783,12.69444 -57.54991,9.07956 -84.057,0 -22.4811,-7.70052 -44.49825,-23.09468 -56.318,-43.71 -17.14816,-29.90883 -21.15721,-68.94671 -13.449,-102.55 7.8709,-34.31254 33.42065,-63.0567 57.999,-88.26 26.42699,-27.09894 58.40273,-50.07103 93.303,-64.724 39.9776,-16.7847 84.52326,-21.26997 127.77,-24.377 37.20866,-2.67323 75.14718,-1.89932 111.8,5.0434 22.98336,4.35347 46.24327,10.83363 66.405,22.695 7.92969,4.66512 20.489,18.493 20.489,18.493 0,0 -5.5124,-70.75614 -16.286,-104.23 -9.32885,-28.98498 -19.23274,-60.43706 -41.188,-81.535 -15.54381,-14.93685 -37.7598,-22.32848 -58.84,-26.839 -40.00204,-8.55921 -82.46615,-6.50274 -122.72,0.78083 -47.02751,8.5092 -92.46704,26.82724 -134.6,49.384 -39.43957,21.1148 -76.57889,47.70922 -108.33,79.224 -26.01151,25.8179 -50.53234,54.83528 -65.564,88.26 -15.14542,33.67768 -22.94181,71.50428 -22.695,108.43 0.19764,29.56976 6.31345,60.02903 19.333,86.579 12.17814,24.83414 31.69323,46.19299 52.956,63.883 18.50189,15.39303 40.2723,27.40409 63.043,35.199 21.44937,7.34259 44.6113,11.48019 67.246,10.192 26.48492,-1.50731 56.62813,-3.57524 76.8236,-20.776 11.79851,-10.04896 20.327,-26.9267 19.12545,-42.378 -0.84185,-10.82571 -8.60087,-21.54048 -17.82895,-27.263 -10.08207,-6.2521 -23.88106,-10.09376 -35.3401,-7.02332 -10.62821,2.84782 -19.54352,8.54983 -20.88783,17.43462 C 458.36193,580.7614 466.03,586.58 466.03,586.58 z"
     inkscape:connector-curvature="0"
     style="fill:#0166fe"
     sodipodi:nodetypes="csssssssssssscsssssssssssssssssc" />
  <path
     id="path3767"
     d="m 469.61,594.08 c 0,0 -16.33394,-3.30041 -20.54387,-9.38926 -6.093,-8.81235 -5.67431,-21.23712 0.31193,-30.12234 9.84911,-14.61877 30.9438,-20.2222 48.556,-20.946 29.78129,-1.22391 66.17058,5.24279 84.735,28.562 15.49352,19.46178 18.6271,52.07459 7.3786,74.262 -11.29049,22.27025 -40.58426,30.91831 -64.503,38.083 -37.43951,11.21475 -78.50389,11.7997 -117.11,5.7124 -39.88382,-6.28877 -78.84061,-21.79975 -113.3,-42.843 -37.96923,-23.18659 -72.79016,-53.55776 -99.016,-89.495 -28.13154,-38.54861 -49.13603,-83.7448 -59.029,-130.43 -8.94751,-42.22355 -7.70008,-87.19494 0.95207,-129.48 9.72363,-47.52161 29.15072,-93.95721 56.172,-134.24 20.75154,-30.93598 48.66429,-57.433322 79.022,-79.022 27.29844,-19.413103 58.70648,-33.089248 90.447,-43.795 25.77195,-8.692616 52.81348,-14.74931 79.974,-16.185 33.74226,-1.783597 67.93433,2.194961 100.92,9.5207 27.63381,6.137152 54.9527,15.324674 79.974,28.562 29.51332,15.613796 80.926,59.029 80.926,59.029 0,0 -104.25006,-9.96407 -155.19,-0.95207 -60.02032,10.61845 -119.2839,32.131 -171.37,63.789 -38.78366,23.57276 -72.98867,55.62627 -100.92,91.399 -22.3688,28.64858 -40.16455,61.59703 -51.412,96.16 -11.40254,35.03957 -17.42559,72.7071 -15.233,109.49 1.48404,24.89627 8.01206,49.98862 19.041,72.358 11.00396,22.31872 27.01021,42.60023 45.7,59.029 24.03771,21.12973 52.64339,37.92371 82.83,48.556 24.51064,8.6331 51.13348,11.75129 77.118,11.425 22.22461,-0.27908 45.90466,-1.30409 65.693,-11.425 16.58381,-8.48192 34.31894,-21.2913 39.987,-39.035 4.61257,-14.43951 1.81616,-33.28223 -8.09905,-44.748 -9.78525,-11.31549 -27.58649,-14.27867 -42.54615,-14.281 -10.9809,-0.002 -23.28723,2.89438 -31.2336,10.473 -4.43534,4.23008 -6.72312,9.66264 -5.10057,15.57307 1.84027,6.70352 14.85907,14.41693 14.85907,14.41693 l 0.01,-0.0114 z"
     inkscape:connector-curvature="0"
     style="fill:#0100cc"
     sodipodi:nodetypes="cssssssssssssssssscsssssssssssssssccc" />
  <path
     style="font-size:24.54685974px;font-style:normal;font-variant:normal;font-weight:normal;font-stretch:normal;text-align:center;line-height:125%;letter-spacing:0px;word-spacing:0px;text-anchor:middle;fill:#003380;fill-opacity:1;stroke:none;font-family:Microsoft Tai Le;-inkscape-font-specification:Microsoft Tai Le"
     d="M 438.40625 711.5625 C 430.7944 711.56261 424.07576 712.92537 418.25 715.65625 C 413.87 717.68104 409.86581 720.80945 406.1875 725 C 402.50916 729.19073 399.59494 733.91396 397.46875 739.1875 C 394.61963 746.34463 393.18749 755.20282 393.1875 765.75 C 393.18749 782.2301 397.29285 795.16888 405.5 804.5625 C 413.70711 813.95614 424.7821 818.65625 438.6875 818.65625 C 452.4227 818.65625 463.38653 813.90948 471.59375 804.46875 C 479.8008 795.02805 483.90615 781.96553 483.90625 765.25 C 483.90615 748.39331 479.77083 735.2456 471.5 725.78125 C 463.229 716.31708 452.18398 711.56261 438.40625 711.5625 z M 859.40625 711.5625 C 851.7944 711.56261 845.07576 712.92537 839.25 715.65625 C 834.87 717.68104 830.83456 720.80945 827.15625 725 C 823.47791 729.19073 820.59494 733.91396 818.46875 739.1875 C 815.61963 746.34463 814.18749 755.20282 814.1875 765.75 C 814.18749 782.2301 818.29285 795.16888 826.5 804.5625 C 834.70711 813.95614 845.75085 818.65625 859.65625 818.65625 C 873.39145 818.65625 884.35528 813.90948 892.5625 804.46875 C 900.76955 795.02805 904.8749 781.96553 904.875 765.25 C 904.8749 748.39331 900.73958 735.2456 892.46875 725.78125 C 884.19775 716.31708 873.18398 711.56261 859.40625 711.5625 z M 12.28125 713.34375 L 12.28125 816.875 L 31.15625 816.875 L 31.15625 785.59375 L 46.46875 768.28125 L 72.15625 816.875 L 96.59375 816.875 L 59.46875 753.65625 L 94.6875 713.34375 L 69.28125 713.34375 L 31.15625 759.3125 L 31.15625 713.34375 L 12.28125 713.34375 z M 106.40625 713.34375 L 106.40625 816.875 L 177.53125 816.875 L 177.53125 799.4375 L 125.28125 799.4375 L 125.28125 771.25 L 172.25 771.25 L 172.25 753.8125 L 125.28125 753.8125 L 125.28125 730.84375 L 175.75 730.84375 L 175.75 713.34375 L 106.40625 713.34375 z M 193.40625 713.34375 L 193.40625 816.875 L 210.96875 816.875 L 210.96875 735.375 L 229.46875 816.875 L 247.625 816.875 L 266.1875 735.375 L 266.1875 816.875 L 283.75 816.875 L 283.75 713.34375 L 255.40625 713.34375 L 238.65625 783.96875 L 221.6875 713.34375 L 193.40625 713.34375 z M 302.875 713.34375 L 302.875 816.875 L 321.75 816.875 L 321.75 785.59375 L 337.0625 768.28125 L 362.78125 816.875 L 387.1875 816.875 L 350.0625 753.65625 L 385.28125 713.34375 L 359.90625 713.34375 L 321.75 759.3125 L 321.75 713.34375 L 302.875 713.34375 z M 498.3125 713.34375 L 498.3125 816.875 L 515.84375 816.875 L 515.84375 735.375 L 534.34375 816.875 L 552.53125 816.875 L 571.09375 735.375 L 571.09375 816.875 L 588.625 816.875 L 588.625 713.34375 L 560.3125 713.34375 L 543.53125 783.96875 L 526.5625 713.34375 L 498.3125 713.34375 z M 606.9375 713.34375 L 606.9375 816.875 L 625.8125 816.875 L 625.8125 713.34375 L 606.9375 713.34375 z M 643.9375 713.34375 L 643.9375 816.875 L 661.46875 816.875 L 661.46875 749.34375 L 699.1875 816.875 L 718.125 816.875 L 718.125 713.34375 L 700.59375 713.34375 L 700.59375 782.46875 L 662.3125 713.34375 L 643.9375 713.34375 z M 738.28125 713.34375 L 738.28125 816.875 L 757.15625 816.875 L 757.15625 772.875 L 796.1875 772.875 L 796.1875 755.375 L 757.15625 755.375 L 757.15625 730.84375 L 802.375 730.84375 L 802.375 713.34375 L 738.28125 713.34375 z M 438.625 729.4375 C 446.40684 729.43759 452.64478 732.34893 457.34375 738.1875 C 462.04258 744.02623 464.37492 752.88441 464.375 764.75 C 464.37492 776.75695 461.98265 785.77783 457.15625 791.78125 C 452.32971 797.78472 446.1517 800.78127 438.625 800.78125 C 431.0982 800.78127 424.89023 797.73806 420 791.6875 C 415.10971 785.63699 412.65622 776.75568 412.65625 765.03125 C 412.65622 753.11858 415.01853 744.22185 419.78125 738.3125 C 424.54391 732.4033 430.84306 729.43759 438.625 729.4375 z M 859.59375 729.4375 C 867.37559 729.43759 873.61353 732.34893 878.3125 738.1875 C 883.01133 744.02623 885.37492 752.88441 885.375 764.75 C 885.37492 776.75695 882.9514 785.77783 878.125 791.78125 C 873.29846 797.78472 867.12045 800.78127 859.59375 800.78125 C 852.06695 800.78127 845.85898 797.73806 840.96875 791.6875 C 836.07846 785.63699 833.62497 776.75568 833.625 765.03125 C 833.62497 753.11858 836.01853 744.22185 840.78125 738.3125 C 845.54391 732.4033 851.81181 729.43759 859.59375 729.4375 z "
     id="text3027" />
</svg>
